<?xml version="1.0" encoding="utf-8"?>
<!-- Generator: Adobe Illustrator 21.0.0, SVG Export Plug-In . SVG Version: 6.00 Build 0)  -->
<!DOCTYPE svg PUBLIC "-//W3C//DTD SVG 1.1//EN" "http://www.w3.org/Graphics/SVG/1.1/DTD/svg11.dtd">
<svg version="1.1" id="Layer_1" xmlns="http://www.w3.org/2000/svg" xmlns:xlink="http://www.w3.org/1999/xlink" x="0px" y="0px"
	 viewBox="0 0 612 167.579" enable-background="new 0 0 612 167.579" xml:space="preserve">
<g>
	<g id="matise_1_">
		<g>
			<path fill-rule="evenodd" clip-rule="evenodd" d="M70.906,84.425L40.425,50.386l-4.37,0.99v69.458h16.661V87.884l17.581,20.288
				h1.123l17.575-20.778v33.44h16.559V51.376l-4.37-0.99L70.906,84.425z M171.205,50.787l-33.327,70.052h18.8l3.963-8.412h26.925
				l3.959,8.412h18.596l-33.022-70.052H171.205z M166.637,98.968l7.413-17.017l7.419,17.017H166.637z M228.726,65.231h18.8v55.608
				h16.762V65.231h18.896V51.376h-54.458V65.231z M319.066,120.834h16.768V51.376h-16.768V120.834z M403.711,79.284
				c-7.317-2.771-12.296-4.949-12.296-8.709c0-3.76,4.674-5.74,10.264-5.74c4.771,0,11.478,2.469,15.746,4.844l5.391-13.643
				C419.361,54.251,409.198,50,400.154,50c-16.051,0-25.604,9.995-25.604,20.58c0,10.292,6.906,16.626,17.474,21.475
				c7.316,3.36,16.158,5.542,16.158,10.188c0,4.453-6.504,5.438-11.28,5.438c-6.397,0-13.617-3.657-17.575-6.428l-6.098,12.568
				c4.568,3.657,14.426,8.308,24.791,8.407c14.73,0.094,26.721-7.422,27.026-20.09C425.249,94.029,421.388,86.112,403.711,79.284z
				 M478.3,92.729h24.181v-13.85H478.3V65.226h29.262v-13.85h-46.024v69.458h46.837v-13.85v-0.01H478.3V92.729z M555.434,103.026
				c-5.187,0-9.659,4.354-9.654,9.396c0,5.443,4.471,9.402,9.654,9.402c5.386,0,9.755-3.959,9.755-9.402
				C565.19,107.38,560.815,103.026,555.434,103.026z"/>
		</g>
	</g>
</g>
</svg>
